<svg width="1200" height="800" viewBox="0 0 1200 800" fill="none" xmlns="http://www.w3.org/2000/svg">
  <defs>
    <linearGradient id="bg" x1="0" y1="0" x2="1200" y2="800" gradientUnits="userSpaceOnUse">
      <stop stop-color="#0B1220"/>
      <stop offset="1" stop-color="#0F3A57"/>
    </linearGradient>
    <linearGradient id="accent" x1="0" y1="0" x2="400" y2="0" gradientUnits="userSpaceOnUse">
      <stop stop-color="#22D3EE"/>
      <stop offset="1" stop-color="#38BDF8"/>
    </linearGradient>
  </defs>

  <rect width="1200" height="800" fill="url(#bg)"/>
  <rect x="130" y="120" width="940" height="560" rx="30" fill="#0F172A" stroke="#334155" stroke-width="2"/>
  <rect x="130" y="120" width="940" height="90" rx="30" fill="#1E293B"/>
  <circle cx="185" cy="165" r="12" fill="#22D3EE"/>
  <circle cx="220" cy="165" r="12" fill="#F59E0B"/>
  <circle cx="255" cy="165" r="12" fill="#10B981"/>

  <text x="320" y="174" fill="#E2E8F0" font-family="Arial, Helvetica, sans-serif" font-size="30" font-weight="700">Election Setup & Timeline</text>

  <rect x="190" y="260" width="360" height="340" rx="20" fill="#0B1220" stroke="#334155"/>
  <text x="220" y="305" fill="#93C5FD" font-family="Arial, Helvetica, sans-serif" font-size="22" font-weight="700">Schedule Window</text>
  <rect x="220" y="340" width="300" height="16" rx="8" fill="#1E293B"/>
  <rect x="220" y="340" width="220" height="16" rx="8" fill="url(#accent)"/>
  <rect x="220" y="385" width="300" height="16" rx="8" fill="#1E293B"/>
  <rect x="220" y="385" width="265" height="16" rx="8" fill="#10B981"/>
  <rect x="220" y="430" width="300" height="16" rx="8" fill="#1E293B"/>
  <rect x="220" y="430" width="180" height="16" rx="8" fill="#F59E0B"/>
  <rect x="220" y="490" width="130" height="70" rx="14" fill="#111827" stroke="#334155"/>
  <rect x="365" y="490" width="155" height="70" rx="14" fill="#111827" stroke="#334155"/>
  <text x="243" y="535" fill="#F8FAFC" font-family="Arial, Helvetica, sans-serif" font-size="18" font-weight="700">Open</text>
  <text x="398" y="535" fill="#F8FAFC" font-family="Arial, Helvetica, sans-serif" font-size="18" font-weight="700">Close</text>

  <rect x="610" y="260" width="400" height="340" rx="20" fill="#0B1220" stroke="#334155"/>
  <text x="640" y="305" fill="#67E8F9" font-family="Arial, Helvetica, sans-serif" font-size="22" font-weight="700">Access Configuration</text>
  <rect x="640" y="335" width="150" height="95" rx="14" fill="#111827" stroke="#334155"/>
  <rect x="800" y="335" width="180" height="95" rx="14" fill="#111827" stroke="#334155"/>
  <rect x="640" y="445" width="340" height="35" rx="10" fill="#111827" stroke="#334155"/>
  <rect x="640" y="490" width="340" height="35" rx="10" fill="#111827" stroke="#334155"/>
  <circle cx="670" cy="461" r="8" fill="#10B981"/>
  <circle cx="670" cy="506" r="8" fill="#22D3EE"/>
  <text x="688" y="467" fill="#E5E7EB" font-family="Arial, Helvetica, sans-serif" font-size="16">Role-based entry</text>
  <text x="688" y="512" fill="#E5E7EB" font-family="Arial, Helvetica, sans-serif" font-size="16">Voter token rule</text>
</svg>
