<svg width="1200" height="800" viewBox="0 0 1200 800" fill="none" xmlns="http://www.w3.org/2000/svg">
  <defs>
    <linearGradient id="bg" x1="0" y1="0" x2="1200" y2="800" gradientUnits="userSpaceOnUse">
      <stop stop-color="#0B1220"/>
      <stop offset="1" stop-color="#1E3A8A"/>
    </linearGradient>
    <linearGradient id="bar" x1="0" y1="0" x2="0" y2="1">
      <stop stop-color="#67E8F9"/>
      <stop offset="1" stop-color="#22D3EE"/>
    </linearGradient>
  </defs>

  <rect width="1200" height="800" fill="url(#bg)"/>
  <rect x="120" y="90" width="960" height="620" rx="30" fill="#0F172A" stroke="#334155" stroke-width="2"/>

  <text x="170" y="165" fill="#E2E8F0" font-family="Arial, Helvetica, sans-serif" font-size="34" font-weight="700">Analytics & Published Results</text>

  <rect x="170" y="220" width="620" height="430" rx="20" fill="#0B1220" stroke="#334155"/>
  <line x1="230" y1="595" x2="730" y2="595" stroke="#334155" stroke-width="2"/>
  <line x1="230" y1="280" x2="230" y2="595" stroke="#334155" stroke-width="2"/>

  <rect x="270" y="470" width="58" height="125" rx="8" fill="url(#bar)"/>
  <rect x="355" y="420" width="58" height="175" rx="8" fill="url(#bar)"/>
  <rect x="440" y="360" width="58" height="235" rx="8" fill="url(#bar)"/>
  <rect x="525" y="310" width="58" height="285" rx="8" fill="url(#bar)"/>
  <rect x="610" y="265" width="58" height="330" rx="8" fill="url(#bar)"/>

  <path d="M270 510C335 490 390 430 470 400C545 372 620 340 670 298" stroke="#F59E0B" stroke-width="5" stroke-linecap="round"/>
  <circle cx="270" cy="510" r="7" fill="#FCD34D"/>
  <circle cx="470" cy="400" r="7" fill="#FCD34D"/>
  <circle cx="670" cy="298" r="7" fill="#FCD34D"/>

  <rect x="820" y="220" width="210" height="130" rx="16" fill="#111827" stroke="#334155"/>
  <text x="850" y="265" fill="#94A3B8" font-family="Arial, Helvetica, sans-serif" font-size="16">Participation</text>
  <text x="850" y="315" fill="#F8FAFC" font-family="Arial, Helvetica, sans-serif" font-size="36" font-weight="700">84.2%</text>

  <rect x="820" y="370" width="210" height="130" rx="16" fill="#111827" stroke="#334155"/>
  <text x="850" y="415" fill="#94A3B8" font-family="Arial, Helvetica, sans-serif" font-size="16">Published</text>
  <text x="850" y="465" fill="#F8FAFC" font-family="Arial, Helvetica, sans-serif" font-size="36" font-weight="700">18 / 24</text>

  <rect x="820" y="520" width="210" height="130" rx="16" fill="#111827" stroke="#334155"/>
  <text x="850" y="565" fill="#94A3B8" font-family="Arial, Helvetica, sans-serif" font-size="16">Audit Ready</text>
  <text x="850" y="615" fill="#10B981" font-family="Arial, Helvetica, sans-serif" font-size="36" font-weight="700">YES</text>
</svg>
