<svg width="1200" height="800" viewBox="0 0 1200 800" fill="none" xmlns="http://www.w3.org/2000/svg">
  <defs>
    <linearGradient id="bg" x1="0" y1="0" x2="1200" y2="800" gradientUnits="userSpaceOnUse">
      <stop stop-color="#020617"/>
      <stop offset="1" stop-color="#0E3A52"/>
    </linearGradient>
    <linearGradient id="shield" x1="0" y1="0" x2="1" y2="1">
      <stop stop-color="#22D3EE"/>
      <stop offset="1" stop-color="#14B8A6"/>
    </linearGradient>
  </defs>

  <rect width="1200" height="800" fill="url(#bg)"/>
  <rect x="130" y="95" width="940" height="610" rx="30" fill="#0F172A" stroke="#334155" stroke-width="2"/>

  <text x="180" y="168" fill="#E2E8F0" font-family="Arial, Helvetica, sans-serif" font-size="34" font-weight="700">Secure Token-Based Voting</text>

  <path d="M365 265L515 325V455C515 548 450 622 365 645C280 622 215 548 215 455V325L365 265Z" fill="#0B1220" stroke="url(#shield)" stroke-width="6"/>
  <circle cx="365" cy="432" r="66" fill="#111827" stroke="#22D3EE" stroke-width="3"/>
  <path d="M335 435L355 455L398 412" stroke="#67E8F9" stroke-width="12" stroke-linecap="round" stroke-linejoin="round"/>

  <rect x="580" y="240" width="430" height="430" rx="22" fill="#0B1220" stroke="#334155"/>
  <text x="620" y="298" fill="#67E8F9" font-family="Arial, Helvetica, sans-serif" font-size="22" font-weight="700">Vote Submission Pipeline</text>

  <rect x="620" y="330" width="350" height="58" rx="14" fill="#111827" stroke="#334155"/>
  <rect x="620" y="406" width="350" height="58" rx="14" fill="#111827" stroke="#334155"/>
  <rect x="620" y="482" width="350" height="58" rx="14" fill="#111827" stroke="#334155"/>
  <text x="650" y="367" fill="#F8FAFC" font-family="Arial, Helvetica, sans-serif" font-size="20">Token Verification</text>
  <text x="650" y="443" fill="#F8FAFC" font-family="Arial, Helvetica, sans-serif" font-size="20">Encrypted Ballot Submit</text>
  <text x="650" y="519" fill="#F8FAFC" font-family="Arial, Helvetica, sans-serif" font-size="20">Integrity Hash Logging</text>

  <circle cx="930" cy="359" r="10" fill="#10B981"/>
  <circle cx="930" cy="435" r="10" fill="#10B981"/>
  <circle cx="930" cy="511" r="10" fill="#10B981"/>

  <path d="M700 124L750 124" stroke="#22D3EE" stroke-width="6" stroke-linecap="round"/>
  <path d="M780 124L830 124" stroke="#22D3EE" stroke-width="6" stroke-linecap="round"/>
  <path d="M860 124L910 124" stroke="#22D3EE" stroke-width="6" stroke-linecap="round"/>
</svg>
