<svg width="1920" height="1080" viewBox="0 0 1920 1080" fill="none" xmlns="http://www.w3.org/2000/svg">
  <defs>
    <linearGradient id="bg" x1="0" y1="0" x2="1920" y2="1080" gradientUnits="userSpaceOnUse">
      <stop offset="0" stop-color="#020617"/>
      <stop offset="0.45" stop-color="#0F172A"/>
      <stop offset="1" stop-color="#082F49"/>
    </linearGradient>
    <radialGradient id="glow1" cx="0" cy="0" r="1" gradientUnits="userSpaceOnUse" gradientTransform="translate(430 240) rotate(24) scale(520 360)">
      <stop stop-color="#22D3EE" stop-opacity="0.35"/>
      <stop offset="1" stop-color="#22D3EE" stop-opacity="0"/>
    </radialGradient>
    <radialGradient id="glow2" cx="0" cy="0" r="1" gradientUnits="userSpaceOnUse" gradientTransform="translate(1510 860) rotate(-21) scale(560 380)">
      <stop stop-color="#F59E0B" stop-opacity="0.25"/>
      <stop offset="1" stop-color="#F59E0B" stop-opacity="0"/>
    </radialGradient>
    <linearGradient id="card" x1="0" y1="0" x2="1" y2="1">
      <stop offset="0" stop-color="#0B1120" stop-opacity="0.9"/>
      <stop offset="1" stop-color="#111827" stop-opacity="0.55"/>
    </linearGradient>
    <linearGradient id="barCyan" x1="0" y1="0" x2="260" y2="0" gradientUnits="userSpaceOnUse">
      <stop stop-color="#06B6D4"/>
      <stop offset="1" stop-color="#67E8F9"/>
    </linearGradient>
    <linearGradient id="barAmber" x1="0" y1="0" x2="260" y2="0" gradientUnits="userSpaceOnUse">
      <stop stop-color="#F59E0B"/>
      <stop offset="1" stop-color="#FCD34D"/>
    </linearGradient>
    <filter id="soft" x="-20%" y="-20%" width="140%" height="140%">
      <feGaussianBlur stdDeviation="3"/>
    </filter>
  </defs>

  <rect width="1920" height="1080" fill="url(#bg)"/>
  <rect width="1920" height="1080" fill="url(#glow1)"/>
  <rect width="1920" height="1080" fill="url(#glow2)"/>

  <g opacity="0.18" stroke="#CBD5E1" stroke-width="1">
    <path d="M0 120H1920"/>
    <path d="M0 240H1920"/>
    <path d="M0 360H1920"/>
    <path d="M0 480H1920"/>
    <path d="M0 600H1920"/>
    <path d="M0 720H1920"/>
    <path d="M0 840H1920"/>
    <path d="M0 960H1920"/>
    <path d="M160 0V1080"/>
    <path d="M320 0V1080"/>
    <path d="M480 0V1080"/>
    <path d="M640 0V1080"/>
    <path d="M800 0V1080"/>
    <path d="M960 0V1080"/>
    <path d="M1120 0V1080"/>
    <path d="M1280 0V1080"/>
    <path d="M1440 0V1080"/>
    <path d="M1600 0V1080"/>
    <path d="M1760 0V1080"/>
  </g>

  <g opacity="0.7" stroke="#22D3EE" stroke-width="2">
    <path d="M280 760C430 610 590 660 740 520C860 410 990 380 1150 430C1320 484 1450 700 1660 690"/>
    <circle cx="740" cy="520" r="8" fill="#22D3EE"/>
    <circle cx="1150" cy="430" r="8" fill="#22D3EE"/>
    <circle cx="1660" cy="690" r="8" fill="#22D3EE"/>
  </g>

  <g opacity="0.9">
    <rect x="1110" y="220" width="560" height="420" rx="24" fill="url(#card)" stroke="#334155" stroke-width="2"/>
    <text x="1150" y="278" fill="#67E8F9" font-family="Arial, Helvetica, sans-serif" font-size="22" font-weight="700">Digital Election Transparency Dashboard</text>

    <text x="1150" y="330" fill="#CBD5E1" font-family="Arial, Helvetica, sans-serif" font-size="16">Voter Access Verification</text>
    <rect x="1150" y="348" width="360" height="12" rx="6" fill="#1E293B"/>
    <rect x="1150" y="348" width="328" height="12" rx="6" fill="url(#barCyan)"/>
    <text x="1520" y="359" fill="#E2E8F0" font-family="Arial, Helvetica, sans-serif" font-size="14">91.2%</text>

    <text x="1150" y="400" fill="#CBD5E1" font-family="Arial, Helvetica, sans-serif" font-size="16">Ballot Completion</text>
    <rect x="1150" y="418" width="360" height="12" rx="6" fill="#1E293B"/>
    <rect x="1150" y="418" width="303" height="12" rx="6" fill="url(#barAmber)"/>
    <text x="1520" y="429" fill="#E2E8F0" font-family="Arial, Helvetica, sans-serif" font-size="14">84.1%</text>

    <g>
      <rect x="1150" y="470" width="154" height="128" rx="16" fill="#0F172A" stroke="#334155"/>
      <text x="1172" y="512" fill="#94A3B8" font-family="Arial, Helvetica, sans-serif" font-size="13">Active Elections</text>
      <text x="1172" y="555" fill="#F8FAFC" font-family="Arial, Helvetica, sans-serif" font-size="34" font-weight="700">24</text>
    </g>
    <g>
      <rect x="1312" y="470" width="154" height="128" rx="16" fill="#0F172A" stroke="#334155"/>
      <text x="1334" y="512" fill="#94A3B8" font-family="Arial, Helvetica, sans-serif" font-size="13">Verified Voters</text>
      <text x="1334" y="555" fill="#F8FAFC" font-family="Arial, Helvetica, sans-serif" font-size="34" font-weight="700">12.8k</text>
    </g>
    <g>
      <rect x="1474" y="470" width="154" height="128" rx="16" fill="#0F172A" stroke="#334155"/>
      <text x="1496" y="512" fill="#94A3B8" font-family="Arial, Helvetica, sans-serif" font-size="13">Published Results</text>
      <text x="1496" y="555" fill="#F8FAFC" font-family="Arial, Helvetica, sans-serif" font-size="34" font-weight="700">18</text>
    </g>
  </g>

  <g>
    <circle cx="360" cy="350" r="132" fill="#0B1220" stroke="#334155" stroke-width="2"/>
    <path d="M360 230C315 230 278 267 278 312V352C278 397 315 434 360 434C405 434 442 397 442 352V312C442 267 405 230 360 230Z" fill="#0F172A" stroke="#475569"/>
    <rect x="325" y="308" width="70" height="88" rx="16" fill="#020617" stroke="#22D3EE"/>
    <circle cx="360" cy="350" r="13" fill="#22D3EE" filter="url(#soft)"/>
    <path d="M350 368L360 378L377 360" stroke="#67E8F9" stroke-width="4" stroke-linecap="round" stroke-linejoin="round"/>
  </g>

  <g opacity="0.9">
    <text x="210" y="620" fill="#E2E8F0" font-family="Arial, Helvetica, sans-serif" font-size="28" font-weight="700">Secure Access. Verified Voting. Transparent Results.</text>
    <text x="210" y="658" fill="#94A3B8" font-family="Arial, Helvetica, sans-serif" font-size="20">A global digital election workflow for organizations, institutions, and private bodies.</text>
  </g>
</svg>
